<svg width="151" height="150" viewBox="0 0 151 150" fill="none" xmlns="http://www.w3.org/2000/svg">
<path d="M129.696 84.2256H120.426L102.867 62.2758C102.476 61.7894 101.964 61.4164 101.38 61.1978L92.7579 57.9649L93.797 42.7123H96.2552C96.8663 42.7123 97.4534 42.4697 97.8859 42.0371C98.3186 41.6045 98.5611 41.0186 98.5611 40.4064V31.1814C98.5589 29.7508 98.1148 28.357 97.2897 27.1885C96.4635 26.0212 95.2962 25.1377 93.9493 24.6593V12.7311C93.947 10.8966 93.2169 9.13874 91.9202 7.84118C90.6225 6.54456 88.8646 5.81442 87.0303 5.81213H27.0684C25.2339 5.81442 23.4748 6.54456 22.1785 7.84118C20.8807 9.13894 20.1517 10.8968 20.1494 12.7311V24.6593C18.8013 25.1377 17.634 26.0212 16.809 27.1885C15.9827 28.3569 15.5387 29.7508 15.5364 31.1814V40.4064C15.5364 41.0186 15.7801 41.6045 16.2127 42.0371C16.6453 42.4697 17.2313 42.7123 17.8435 42.7123H20.3017L21.8272 65.1083C19.4892 66.7197 18.0253 69.3186 17.8583 72.1534C17.6924 74.9869 18.8425 77.7391 20.9758 79.6126C18.9845 81.3601 17.8437 83.8812 17.8437 86.5317C17.8437 89.181 18.9847 91.702 20.9758 93.4507C18.9845 95.1982 17.8437 97.7193 17.8437 100.369C17.8437 103.019 18.9847 105.54 20.9758 107.288C19.1986 108.85 18.0896 111.037 17.8791 113.395C17.6697 115.753 18.3758 118.101 19.8498 119.953C21.325 121.805 23.4548 123.019 25.7997 123.343L27.0746 142.039C27.157 143.247 28.1618 144.187 29.3749 144.188H84.7255C85.9374 144.188 86.9433 143.248 87.0257 142.039L87.7627 131.254L102.699 135.819C106.134 136.866 109.852 136.411 112.933 134.566L119.957 130.35H129.697C131.606 130.349 133.155 128.8 133.157 126.89V87.685C133.155 85.7761 131.606 84.2277 129.697 84.2265L129.696 84.2256ZM27.0693 10.4239H87.0312C88.3038 10.425 89.3361 11.4573 89.3372 12.7299V24.2608H24.7611V12.7299C24.7634 11.4573 25.7945 10.425 27.0682 10.4239H27.0693ZM20.1503 31.1801C20.1514 29.9075 21.1837 28.8753 22.4563 28.8741H91.6438C92.9175 28.8753 93.9486 29.9075 93.9509 31.1801V38.0992H20.1492L20.1503 31.1801ZM24.926 42.7111H89.174L88.2494 56.2723L83.4268 54.4641C83.0377 54.3177 82.6257 54.2421 82.2092 54.2421H67.4268C64.876 54.2456 62.4144 55.1886 60.5122 56.8892C58.6102 58.5909 57.4006 60.9324 57.1143 63.4672H27.0675C26.8226 63.4672 26.5799 63.4798 26.3396 63.4981L24.926 42.7111ZM84.9289 104.982H44.2795C45.3484 103.138 45.7443 100.98 45.3999 98.8761C45.0543 96.7738 43.99 94.8557 42.3879 93.4503C44.3791 91.7017 45.5212 89.1806 45.5212 86.5313C45.5212 83.8808 44.379 81.3598 42.3879 79.6123C43.99 78.2069 45.0543 76.2888 45.3999 74.1856C45.7443 72.0822 45.3484 69.9249 44.2795 68.0813H57.6474C58.3649 70.1023 59.6901 71.8533 61.441 73.0916C63.192 74.331 65.2839 74.9971 67.4287 75.0005H78.8785L86.2221 86.0167L84.9289 104.982ZM27.0676 91.1435C25.5776 91.1412 24.1814 90.4191 23.3185 89.206C22.4544 87.9929 22.229 86.4377 22.7142 85.03C23.1994 83.6213 24.3335 82.5341 25.7617 82.1095C26.1851 81.9836 26.6246 81.9195 27.0674 81.9184H36.2924C37.9404 81.9184 39.4624 82.7984 40.2865 84.2255C41.1105 85.6526 41.1105 87.4104 40.2865 88.8374C39.4625 90.2645 37.9404 91.1434 36.2924 91.1434L27.0676 91.1435ZM27.0676 68.0813H36.2926C37.9405 68.0813 39.4625 68.9602 40.2866 70.3873C41.1107 71.8144 41.1106 73.5733 40.2866 75.0004C39.4626 76.4274 37.9406 77.3064 36.2926 77.3064H27.0676C25.4196 77.3064 23.8965 76.4274 23.0724 75.0004C22.2482 73.5733 22.2484 71.8143 23.0724 70.3873C23.8963 68.9602 25.4195 68.0813 27.0676 68.0813ZM22.4545 100.369C22.4556 99.1471 22.942 97.9741 23.8072 97.1101C24.6724 96.2449 25.8442 95.7586 27.0676 95.7574H36.2926C37.9406 95.7574 39.4626 96.6363 40.2867 98.0634C41.1108 99.4905 41.1107 101.248 40.2867 102.675C39.4627 104.104 37.9407 104.982 36.2926 104.982H27.0676C25.8443 104.98 24.6724 104.494 23.8072 103.63C22.942 102.765 22.4556 101.593 22.4545 100.369ZM22.4545 114.207C22.4556 112.984 22.942 111.812 23.8072 110.947C24.6724 110.083 25.8442 109.595 27.0676 109.594H31.6796C33.3275 109.594 34.8506 110.473 35.6748 111.9C36.4987 113.327 36.4987 115.086 35.6748 116.513C34.8508 117.94 33.3276 118.819 31.6796 118.819H27.0676C25.8443 118.818 24.6724 118.332 23.8072 117.467C22.942 116.603 22.4556 115.43 22.4545 114.207ZM82.5687 139.576H31.5277L30.4268 123.432L31.6799 123.433C33.8497 123.434 35.9497 122.671 37.6126 121.277C39.2742 119.883 40.3923 117.946 40.7678 115.81C41.1433 113.673 40.7529 111.472 39.6658 109.595H84.616L82.5687 139.576ZM128.541 125.739H119.636C119.009 125.739 118.394 125.909 117.856 126.232L110.557 130.61C108.597 131.786 106.23 132.075 104.044 131.408L88.0824 126.53L90.8495 85.9387C90.8999 85.1777 90.6985 84.4212 90.2774 83.7861L82.3739 71.9299H82.3728C81.7319 70.9663 80.6505 70.3884 79.4935 70.3895H67.4258C65.3659 70.3895 63.4628 69.2909 62.4327 67.5068C61.4028 65.7227 61.4028 63.5253 62.4327 61.7412C63.4627 59.957 65.3659 58.8584 67.4258 58.8584H81.9986L99.4622 65.4077L117.171 87.5418C117.825 88.3646 118.82 88.8419 119.872 88.8396H128.542L128.541 125.739Z" fill="white"/>
</svg>
