<svg width="151" height="150" viewBox="0 0 151 150" fill="none" xmlns="http://www.w3.org/2000/svg">
<path d="M114.705 38.1006H84.7227V8.11816C84.7227 7.50592 84.4789 6.91998 84.0463 6.48738C83.6137 6.05478 83.0278 5.81104 82.4155 5.81104H68.5786C67.3049 5.81104 66.2726 6.84442 66.2726 8.11816V38.1006H36.2902C34.4557 38.1029 32.6966 38.8319 31.4003 40.1296C30.1025 41.4263 29.3735 43.1853 29.3712 45.0196V49.6315C29.3712 50.2426 29.6138 50.8297 30.0464 51.2623C30.479 51.6949 31.0661 51.9375 31.6772 51.9375H36.4025L40.2477 128.851C40.4526 132.989 42.2401 136.889 45.242 139.744C48.2437 142.6 52.2287 144.19 56.3713 144.188H94.6213C98.7641 144.19 102.749 142.6 105.751 139.744C108.752 136.889 110.541 132.989 110.745 128.851L114.59 51.9375H119.315C119.928 51.9375 120.513 51.6949 120.946 51.2623C121.379 50.8297 121.621 50.2426 121.621 49.6315V45.0196C121.62 43.1851 120.89 41.426 119.593 40.1296C118.296 38.8319 116.538 38.1029 114.703 38.1006H114.705ZM70.8857 10.4253H80.1107V38.1006H70.8857V10.4253ZM70.8857 65.7759V51.9378H80.1107V65.7747L70.8857 65.7759ZM66.2738 65.7759H41.7148L41.0225 51.939L66.2737 51.9378L66.2738 65.7759ZM106.141 128.621C105.995 131.576 104.717 134.362 102.574 136.402C100.429 138.441 97.5831 139.577 94.6235 139.575H56.3735C53.4151 139.577 50.5681 138.441 48.4244 136.402C46.2798 134.362 45.0025 131.576 44.8572 128.621L41.9458 70.3872H109.05L106.141 128.621ZM109.284 65.7759H84.7247V51.9378H109.975L109.284 65.7759ZM117.012 47.3256H33.9875V45.0196C33.9898 43.7459 35.0209 42.7148 36.2946 42.7125H114.708C115.98 42.7148 117.013 43.7459 117.014 45.0196L117.012 47.3256Z" fill="white"/>
<path d="M57.0488 121.125C55.2132 121.125 53.4541 121.854 52.1565 123.152C50.8588 124.45 50.1298 126.21 50.1298 128.044C50.1298 129.88 50.8588 131.639 52.1565 132.936C53.4543 134.234 55.2134 134.963 57.0488 134.963C58.8833 134.963 60.6436 134.234 61.9411 132.936C63.2377 131.639 63.9667 129.879 63.9667 128.044C63.9656 126.21 63.2355 124.452 61.9388 123.154C60.6411 121.857 58.8831 121.127 57.0488 121.125ZM57.0488 130.35C56.1161 130.35 55.275 129.788 54.918 128.926C54.5609 128.065 54.7577 127.072 55.4181 126.413C56.0772 125.754 57.0694 125.556 57.9312 125.913C58.7929 126.27 59.3548 127.111 59.3548 128.044C59.3537 129.318 58.3214 130.349 57.0488 130.35Z" fill="white"/>
<path d="M70.8857 111.899C70.8857 110.065 70.1567 108.305 68.859 107.007C67.5624 105.711 65.8021 104.982 63.9667 104.982C62.1322 104.982 60.372 105.711 59.0744 107.007C57.7778 108.305 57.0488 110.065 57.0488 111.899C57.0488 113.735 57.7778 115.495 59.0744 116.792C60.3722 118.09 62.1324 118.819 63.9667 118.819C65.8012 118.816 67.5603 118.087 68.8566 116.789C70.1544 115.493 70.8835 113.734 70.8857 111.899ZM63.9667 114.207C63.034 114.207 62.194 113.645 61.837 112.783C61.4799 111.921 61.6767 110.929 62.3359 110.269C62.9962 109.61 63.9884 109.413 64.8502 109.77C65.7119 110.127 66.2738 110.967 66.2738 111.899C66.2715 113.173 65.2404 114.204 63.9667 114.207Z" fill="white"/>
<path d="M87.0312 118.819C88.8657 118.819 90.626 118.09 91.9235 116.793C93.2213 115.496 93.9503 113.736 93.9503 111.9C93.9503 110.066 93.2213 108.306 91.9235 107.008C90.6258 105.711 88.8655 104.982 87.0312 104.982C85.1956 104.982 83.4365 105.711 82.139 107.008C80.8412 108.306 80.1122 110.066 80.1122 111.9C80.1145 113.735 80.8446 115.494 82.1413 116.79C83.4379 118.088 85.197 118.817 87.0312 118.819ZM87.0312 109.594C87.9639 109.594 88.8051 110.156 89.1621 111.018C89.5192 111.88 89.3212 112.872 88.662 113.531C88.0017 114.191 87.0107 114.388 86.1489 114.031C85.2872 113.674 84.7253 112.834 84.7253 111.9C84.7264 110.628 85.7575 109.595 87.0312 109.594Z" fill="white"/>
<path d="M75.5 121.125C73.6644 121.125 71.9044 121.854 70.6077 123.152C69.31 124.45 68.581 126.21 68.581 128.044C68.581 129.88 69.31 131.639 70.6077 132.936C71.9043 134.234 73.6646 134.963 75.5 134.963C77.3345 134.963 79.0947 134.234 80.3923 132.936C81.6889 131.639 82.4179 129.879 82.4179 128.044C82.4168 126.21 81.6866 124.452 80.39 123.154C79.0922 121.857 77.3331 121.127 75.5 121.125ZM75.5 130.35C74.5673 130.35 73.7262 129.788 73.3691 128.926C73.0121 128.065 73.2089 127.072 73.8692 126.413C74.5284 125.754 75.5206 125.556 76.3823 125.913C77.2441 126.27 77.806 127.111 77.806 128.044C77.8048 129.318 76.7726 130.349 75.5 130.35Z" fill="white"/>
<path d="M93.9512 121.125C92.1156 121.125 90.3556 121.854 89.0589 123.152C87.7611 124.45 87.0321 126.21 87.0321 128.044C87.0321 129.88 87.7611 131.639 89.0589 132.936C90.3555 134.234 92.1157 134.963 93.9512 134.963C95.7857 134.963 97.5459 134.234 98.8423 132.936C100.14 131.639 100.869 129.879 100.869 128.044C100.867 126.21 100.138 124.452 98.84 123.154C97.5434 121.857 95.7846 121.127 93.9512 121.125ZM93.9512 130.35C93.0173 130.35 92.1773 129.788 91.8203 128.926C91.4633 128.065 91.6601 127.072 92.3204 126.413C92.9796 125.754 93.9718 125.556 94.8335 125.913C95.6952 126.27 96.2572 127.111 96.2572 128.044C96.256 129.318 95.2238 130.349 93.9512 130.35Z" fill="white"/>
</svg>
