<svg width="61" height="91" viewBox="0 0 91 91" fill="none" xmlns="http://www.w3.org/2000/svg">
<path d="M60.006 23.854C48.5216 13.9684 29.048 2.35278 13.8186 2.35278C14.0683 3.58848 14.3179 5.07132 14.8173 6.05988C21.3085 13.7212 25.5527 22.8654 30.7956 31.5153C39.2841 48.5679 53.2652 62.6549 69.7428 71.7991C74.7361 74.5176 63.7509 85.8861 67.9952 88.8517C71.9898 90.8288 73.2381 84.6504 73.7374 82.179C78.7306 61.4192 77.4823 38.4352 60.006 23.854ZM70.7415 63.1492C64.9993 59.195 64.0006 49.5565 57.7591 45.8494C45.0263 43.1309 38.7848 38.1881 56.7604 43.1309L57.2597 42.6366C52.7658 38.4352 50.0196 30.5267 43.5283 29.5382C40.5324 28.7967 36.7875 29.7853 34.5405 27.561C37.2868 26.0782 40.2827 27.3139 43.778 27.3139C38.5351 21.6297 31.2949 18.4169 27.55 12.2384C29.2976 11.497 30.5459 12.9798 31.7942 13.9684C38.0358 19.4054 44.2773 25.0896 50.7685 30.5267C50.5189 27.561 49.0209 24.5954 50.2692 21.6297C52.7658 24.5954 52.0168 29.0439 53.2652 32.5038C56.2611 38.4352 60.5053 44.3666 64.9993 49.3094C65.2489 45.8494 64.2503 42.1423 65.9979 38.9295C68.4945 42.3894 66.7469 47.0851 67.2462 51.0393C66.7469 55.735 71.7401 58.9478 70.7415 63.1492Z" fill="#006308ff"/>
</svg>
