<svg width="151" height="152" viewBox="0 0 151 152" fill="none" xmlns="http://www.w3.org/2000/svg">
<path d="M79.9522 11.4127C67.2356 11.4441 56.9206 23.8841 56.9583 39.1448C56.9851 50.0166 62.2526 59.2403 70.8098 63.6126L68.9861 129.233L68.9861 129.232C68.9019 132.215 70.0305 135.103 72.114 137.239C74.1963 139.374 77.057 140.574 80.0403 140.563L80.5014 140.562C83.4827 140.555 86.3338 139.34 88.4045 137.195C90.4752 135.05 91.5884 132.156 91.4896 129.177L89.3514 63.5684C97.8882 59.1539 103.109 49.9046 103.082 39.0326C103.045 23.7719 92.6687 11.3829 79.9518 11.4142L79.9522 11.4127ZM86.4299 59.8276L80.0716 59.8433L80.0829 64.4551L84.7646 64.4436L86.8895 129.328C86.9453 131.063 86.2971 132.746 85.0906 133.993C83.8851 135.241 82.2252 135.946 80.4902 135.949L80.029 135.951C78.2952 135.954 76.6341 135.255 75.4237 134.013C74.2144 132.772 73.558 131.094 73.6052 129.361L75.4653 62.231C75.4916 61.2868 74.9413 60.4229 74.0752 60.0474C66.3833 56.7453 61.5937 48.7292 61.57 39.1333C61.5387 26.4167 69.7907 16.0507 79.9634 16.0257C90.1361 16.0006 98.4392 26.3254 98.4705 39.0423C98.4938 48.4838 93.8817 56.3916 86.43 59.8283L86.4299 59.8276Z" fill="white"/>
<path d="M83.8988 50.7429L85.4041 55.1006C85.7517 54.9888 93.8928 52.0973 93.8607 39.0558L89.2476 39.0672C89.2712 48.6241 84.1193 50.6589 83.8989 50.7432L83.8988 50.7429Z" fill="white"/>
<path d="M132.997 11.2819L130.69 11.2876C119.286 11.3157 107.645 18.1938 107.77 69.0006L107.838 96.6758C107.84 97.2869 108.084 97.8734 108.517 98.3049C108.951 98.7364 109.539 98.9776 110.15 98.9761L112.324 98.9707L110.737 128.852L110.738 128.852C110.578 131.879 111.671 134.839 113.76 137.036C115.85 139.231 118.752 140.471 121.783 140.46C124.813 140.452 127.707 139.199 129.784 136.993C131.86 134.786 132.938 131.823 132.762 128.797L131.037 98.9246L133.213 98.9192C133.824 98.9177 134.41 98.6736 134.842 98.24C135.272 97.8063 135.514 97.2186 135.513 96.6075L135.308 13.5834C135.307 12.9723 135.062 12.3858 134.629 11.9542C134.195 11.5227 133.608 11.2816 132.997 11.2831L132.997 11.2819ZM126.435 133.83C125.229 135.121 123.54 135.852 121.772 135.847C120.01 135.852 118.324 135.13 117.109 133.854C115.895 132.576 115.26 130.857 115.353 129.096L116.944 98.9575L126.419 98.9341L128.167 129.065C128.276 130.824 127.649 132.551 126.435 133.83ZM130.894 94.3118L112.444 94.3573L112.382 68.988C112.29 31.8075 117.769 15.9326 130.701 15.9007L130.894 94.3118Z" fill="white"/>
<path d="M119.297 66.6664L123.908 66.655L123.937 78.1859L119.325 78.1973L119.297 66.6664Z" fill="white"/>
<path d="M119.274 57.4408L123.886 57.4294L123.897 62.0413L119.285 62.0527L119.274 57.4408Z" fill="white"/>
<path d="M119.251 48.2183L123.863 48.2069L123.874 52.8188L119.262 52.8302L119.251 48.2183Z" fill="white"/>
<path d="M45.3585 11.498C43.5229 11.5025 41.7647 12.2358 40.4712 13.5368C39.1766 14.8366 38.452 16.5986 38.4565 18.434L38.5191 43.8021L36.2131 43.8078L36.1505 18.4397C36.1444 15.9678 34.8193 13.6869 32.6761 12.4562C30.5319 11.2255 27.895 11.232 25.7571 12.4732C23.6191 13.7145 22.3061 16.0021 22.3122 18.4738L22.3748 43.8419L20.0688 43.8476L20.0062 18.4795C20.0001 16.0076 18.6761 13.7267 16.5318 12.496C14.3876 11.2653 11.7507 11.2718 9.61276 12.5131C7.47577 13.7543 6.16178 16.0419 6.16788 18.5137L6.28161 64.6385C6.28312 65.2508 6.52833 65.8361 6.96198 66.2676C7.39565 66.6992 7.98218 66.9415 8.59443 66.9399L20.0509 66.9117L18.2548 129.345C18.1683 132.328 19.2958 135.218 21.3771 137.355C23.4584 139.492 26.3178 140.695 29.3014 140.687L29.7626 140.686C32.7473 140.679 35.5996 139.462 37.6712 137.315C39.7418 135.167 40.8539 132.271 40.7539 129.29L38.6488 66.8658L50.1064 66.8376C50.7175 66.8361 51.304 66.5909 51.7356 66.1572C52.1671 65.7236 52.4082 65.137 52.4067 64.5248L52.293 18.3999C52.2885 16.5643 51.5551 14.8061 50.2542 13.5126C48.9544 12.2181 47.1924 11.4934 45.3581 11.498L45.3585 11.498ZM26.9253 18.4625C26.9222 17.1887 27.9519 16.1528 29.2256 16.1497C30.4993 16.1465 31.5341 17.1774 31.5373 18.4511L31.5998 43.8192L26.9879 43.8306L26.9253 18.4625ZM10.7813 18.5023C10.7782 17.2285 11.8079 16.1926 13.0816 16.1895C14.3553 16.1863 15.3901 17.2172 15.3933 18.4909L15.4558 43.859L10.8439 43.8704L10.7813 18.5023ZM34.3598 134.114C33.1567 135.371 31.491 136.078 29.7515 136.075L29.2904 136.076C27.5554 136.079 25.8931 135.38 24.6827 134.137C23.4712 132.894 22.8158 131.214 22.8654 129.479L24.6668 66.8995L34.0351 66.8764L36.1452 129.447C36.2112 131.181 35.5664 132.866 34.3598 134.114ZM47.7895 62.2305L10.8902 62.3215L10.8561 48.4846L47.7554 48.3936L47.7895 62.2305ZM47.744 43.7803L43.131 43.7916L43.0684 18.4235C43.0653 17.1498 44.0961 16.1139 45.3698 16.1107C46.6436 16.1076 47.6784 17.1384 47.6815 18.4122L47.744 43.7803Z" fill="white"/>
</svg>
