<svg width="151" height="151" viewBox="0 0 151 151" fill="none" xmlns="http://www.w3.org/2000/svg">
<path d="M135.462 84.4102C136.736 84.4102 137.768 83.3768 137.768 82.1031C137.768 80.8294 136.736 79.7971 135.462 79.7971H130.849C129.575 79.7971 128.543 80.8294 128.543 82.1031C128.543 83.3768 129.575 84.4102 130.849 84.4102H135.462Z" fill="white"/>
<path d="M63.9013 28.9102L66.1455 30.5937H66.1444C67.124 31.3272 67.3586 32.6994 66.68 33.7179L64.4896 37.0059H64.4884C64.1497 37.5152 64.0261 38.1377 64.1462 38.7374C64.2664 39.3371 64.62 39.8646 65.1281 40.2045C66.1879 40.9106 67.6207 40.6245 68.3268 39.5648L70.5172 36.2768V36.2757C71.498 34.804 71.8779 33.0129 71.5792 31.27C71.2805 29.5271 70.3261 27.965 68.9127 26.9042L66.6685 25.2207C65.6889 24.486 65.4543 23.115 66.1329 22.0965L68.3256 18.8085C69.0318 17.7477 68.7456 16.316 67.6859 15.6099C66.6262 14.9026 65.1934 15.1899 64.4873 16.2496L62.2969 19.5376H62.2957C61.3161 21.0093 60.935 22.8004 61.2337 24.5433C61.5324 26.2862 62.4868 27.8482 63.9013 28.9102Z" fill="white"/>
<path d="M45.4502 28.9102L47.6944 30.5937H47.6933C48.6729 31.3272 48.9075 32.6994 48.2288 33.7179L46.0384 37.0059H46.0373C45.6985 37.5152 45.5749 38.1377 45.6951 38.7374C45.8152 39.3371 46.1689 39.8646 46.677 40.2045C47.7367 40.9106 49.1695 40.6245 49.8756 39.5648L52.066 36.2768L52.0672 36.2757C53.0468 34.804 53.4267 33.0129 53.128 31.27C52.8294 29.5271 51.8749 27.965 50.4616 26.9042L48.2174 25.2207C47.2389 24.486 47.0032 23.115 47.6818 22.0965L49.8745 18.8085C50.5806 17.7477 50.2945 16.316 49.2348 15.6099C48.175 14.9026 46.7422 15.1899 46.0361 16.2496L43.8457 19.5376H43.8446C42.8649 21.0093 42.485 22.8004 42.7826 24.5433C43.0812 26.2862 44.0357 27.8482 45.4502 28.9102Z" fill="white"/>
<path d="M82.0859 28.9102L84.3301 30.5937H84.329C85.3086 31.3272 85.5432 32.6994 84.8646 33.7179L82.6719 37.0059C82.3331 37.5152 82.2095 38.1377 82.3297 38.7374C82.4498 39.3371 82.8023 39.8646 83.3116 40.2045C84.3713 40.9106 85.803 40.6245 86.5102 39.5648L88.7006 36.2768V36.2757C89.6814 34.804 90.0613 33.0129 89.7626 31.27C89.464 29.5271 88.5095 27.965 87.095 26.9042L84.8508 25.2207H84.852C83.8723 24.486 83.6378 23.115 84.3164 22.0965L86.5068 18.8085H86.5079C87.2141 17.7488 86.9279 16.316 85.8682 15.6099C84.8085 14.9026 83.3768 15.1899 82.6696 16.2496L80.4792 19.5376C79.4984 21.0093 79.1185 22.8004 79.4172 24.5433C79.717 26.2862 80.6714 27.8494 82.0859 28.9102Z" fill="white"/>
<path d="M100.868 112.084C99.0337 112.084 97.2734 112.813 95.9759 114.111C94.6781 115.409 93.9503 117.169 93.9503 119.003C93.9503 120.839 94.6781 122.598 95.9759 123.895C97.2736 125.193 99.0339 125.922 100.868 125.922C102.704 125.922 104.463 125.193 105.76 123.895C107.058 122.598 107.787 120.839 107.787 119.003C107.785 117.169 107.056 115.411 105.758 114.113C104.462 112.817 102.702 112.086 100.868 112.084ZM100.868 121.309C99.9355 121.309 99.0943 120.747 98.7373 119.885C98.3802 119.024 98.5782 118.033 99.2374 117.372C99.8977 116.713 100.889 116.515 101.751 116.872C102.612 117.229 103.174 118.07 103.174 119.003C103.173 120.277 102.142 121.308 100.868 121.309Z" fill="white"/>
<path d="M142.382 65.9591H117.012C115.739 65.9591 114.707 66.9914 114.707 68.2651C114.707 69.5388 115.739 70.5711 117.012 70.5711H142.382C143.656 70.5711 144.688 69.5388 144.688 68.2651C144.688 66.9914 143.656 65.9591 142.382 65.9591Z" fill="white"/>
<path d="M110.094 95.9415C110.094 96.5526 110.338 97.1397 110.769 97.5723C111.202 98.0049 111.789 98.2475 112.4 98.2475H126.238C127.512 98.2475 128.544 97.2152 128.544 95.9415C128.544 94.6677 127.512 93.6355 126.238 93.6355H112.4C111.126 93.6355 110.094 94.6677 110.094 95.9415Z" fill="white"/>
<path d="M142.382 130.535H112.15C114.688 128.061 116.337 124.818 116.845 121.31H119.318C121.152 121.309 122.911 120.579 124.208 119.282C125.504 117.985 126.234 116.227 126.237 114.392V109.779C126.237 109.168 125.994 108.581 125.561 108.149C125.129 107.716 124.542 107.473 123.931 107.473H112.15C110.409 105.767 108.305 104.477 105.994 103.7L107.602 84.4112H121.111C122.384 84.4112 123.417 83.3778 123.417 82.104C123.417 80.8303 122.384 79.7981 121.111 79.7981H107.987L110.084 54.6209C110.138 53.9778 109.919 53.3426 109.483 52.8677C109.046 52.3927 108.431 52.1226 107.786 52.1226H91.6422V46.7657L101.723 42.7327H101.724C102.907 42.2601 103.482 40.9177 103.008 39.7356C102.536 38.5523 101.193 37.9778 100.011 38.4505L88.4804 43.0624C87.6049 43.4126 87.0304 44.2606 87.0304 45.2047V52.1238L70.8864 52.1226C70.2421 52.1226 69.6264 52.3927 69.1892 52.8676C68.7532 53.3426 68.5346 53.9777 68.5884 54.6209L69.5337 65.9608H59.3554V54.4287C59.3554 53.8176 59.1128 53.2305 58.6802 52.7979C58.2476 52.3665 57.6605 52.1227 57.0494 52.1227H50.1304C50.1304 51.5116 49.8878 50.9245 49.4552 50.4919C49.0226 50.0593 48.4355 49.8167 47.8244 49.8167H38.5994C37.3256 49.8167 36.2934 50.849 36.2934 52.1227V56.7346L29.3743 56.7358C28.1006 56.7358 27.0684 57.768 27.0684 59.0418V75.1858C26.3989 75.1858 25.7637 75.4753 25.3254 75.98C24.8883 76.4858 24.6903 77.1553 24.7853 77.8179L28.4096 103.194C25.3838 103.822 22.6029 105.308 20.3975 107.473H8.61807C7.34433 107.473 6.31094 108.505 6.31094 109.779V114.392C6.31323 116.226 7.04337 117.984 8.33999 119.282C9.63775 120.578 11.3957 121.309 13.2299 121.31H15.7041C16.2111 124.817 17.8602 128.061 20.3975 130.535H8.6181C7.34436 130.535 6.31097 131.568 6.31097 132.842C6.31097 134.116 7.34436 135.148 8.6181 135.148H142.382C143.655 135.148 144.688 134.116 144.688 132.842C144.688 131.568 143.655 130.535 142.382 130.535L142.382 130.535ZM121.626 112.085V114.391L121.624 114.392C121.623 115.665 120.592 116.697 119.318 116.698H116.844H116.845C116.615 115.099 116.146 113.544 115.451 112.085L121.626 112.085ZM105.281 56.7344L104.897 61.3463H91.6433V56.7344H105.281ZM90.2618 91.6827V91.6815C92.5689 89.9741 93.9353 87.2791 93.9503 84.4089C93.948 83.1855 93.4616 82.0136 92.5976 81.1484C91.7324 80.2832 90.5605 79.7969 89.3371 79.7957H89.1701C88.6345 76.1222 86.8503 72.7439 84.1175 70.2297C81.3858 67.7154 77.8714 66.2187 74.1645 65.9907L74.1622 65.9587H104.511L101.435 102.873C101.246 102.866 101.057 102.858 100.867 102.858C96.6465 102.857 92.5954 104.513 89.5842 107.471H88.9388C89.202 106.731 89.3359 105.95 89.3359 105.165V101.22C90.8168 99.8652 91.6556 97.9471 91.6419 95.94C91.6476 94.4099 91.1635 92.9177 90.2606 91.6817L90.2618 91.6827ZM87.0312 56.7344V61.3463H73.7779L73.3934 56.7344H87.0312ZM50.1318 56.7344H54.7437V66.6347V66.6336C53.0969 67.1268 51.5404 67.8798 50.1318 68.8663V56.7344ZM48.1543 79.3765V79.3754C48.7677 76.8668 50.2051 74.6363 52.2365 73.0399C54.2667 71.4446 56.774 70.5748 59.3571 70.5714H73.194C75.8513 70.5748 78.4262 71.4938 80.4851 73.1749C82.5439 74.8549 83.9595 77.1942 84.4953 79.7966H48.1555L48.1543 79.3765ZM89.3369 84.4062V84.4096C89.3369 86.9525 87.1202 89.0215 84.3954 89.0215C82.7509 89.0398 81.2026 88.2536 80.2481 86.9158C79.8167 86.2955 79.1095 85.9271 78.3553 85.9271C77.6 85.9271 76.8927 86.2955 76.4624 86.9158C75.4954 88.2388 73.9539 89.0215 72.3152 89.0215C70.6752 89.0215 69.135 88.2388 68.1679 86.9158C67.7365 86.2955 67.0292 85.9271 66.2751 85.9271C65.5198 85.9271 64.8125 86.2955 64.3822 86.9158C63.4152 88.2388 61.8737 89.0215 60.235 89.0215C58.595 89.0215 57.0548 88.2388 56.0877 86.9158C55.6563 86.2955 54.949 85.9271 54.1949 85.9271C53.4396 85.9271 52.7323 86.2955 52.302 86.9158C51.3464 88.2536 49.798 89.0398 48.1548 89.0215C45.4288 89.0215 43.2121 86.9524 43.2121 84.4096L89.3369 84.4062ZM50.1318 112.084H86.2871C85.5936 113.543 85.1232 115.098 84.8943 116.697H47.658C47.4291 115.098 46.9599 113.543 46.2653 112.084H50.1318ZM47.8258 105.165V102.859H84.7252V105.166C84.723 106.439 83.6919 107.471 82.4181 107.472H50.13C48.8574 107.471 47.8252 106.439 47.8241 105.166L47.8258 105.165ZM85.1442 98.2457L47.404 98.2469C46.3637 98.2469 45.5168 97.2124 45.5168 95.9409C45.5168 94.6694 46.3637 93.6349 47.404 93.6349V93.604C47.6512 93.6223 47.9006 93.6349 48.1536 93.6349C50.3428 93.6395 52.4702 92.9093 54.1937 91.559C55.9195 92.9048 58.0456 93.6349 60.2338 93.6349C62.422 93.6349 64.5484 92.9048 66.274 91.559C67.9997 92.9036 70.125 93.6349 72.3141 93.6349C74.5022 93.6349 76.6275 92.9036 78.3531 91.559C80.0765 92.9094 82.2041 93.6395 84.3932 93.6349C84.645 93.6349 84.8944 93.6223 85.1428 93.604V93.6349C86.1831 93.6349 87.0299 94.6694 87.0299 95.9409C87.0299 97.2124 86.1831 98.2469 85.1428 98.2469L85.1442 98.2457ZM40.9059 54.4264H45.5178V73.7954C45.2477 74.244 44.9994 74.7064 44.7728 75.1825L40.9059 75.1836V54.4264ZM31.6809 61.3454H36.2928V75.1824L31.6809 75.1835V61.3454ZM43.2119 79.7957C41.9896 79.7969 40.8166 80.2833 39.9526 81.1484C39.0874 82.0136 38.601 83.1855 38.5999 84.4089C38.6136 87.2791 39.9812 89.9741 42.2884 91.6815C41.3843 92.9175 40.9002 94.4098 40.9059 95.9398C40.8933 97.9471 41.731 99.865 43.2119 101.22V105.165C43.2119 105.95 43.3458 106.73 43.609 107.471H42.9636C40.2845 104.841 36.7711 103.231 33.0302 102.92L29.7276 79.7955L43.2119 79.7957ZM15.7047 116.695H13.2305C11.9579 116.694 10.9257 115.662 10.9246 114.389V112.083L17.0974 112.082C16.4027 113.541 15.9336 115.096 15.7047 116.695ZM31.6806 130.532C28.6226 130.532 25.6897 129.318 23.5267 127.155C21.3649 124.992 20.1497 122.06 20.1497 119.001C20.1497 115.943 21.365 113.01 23.5267 110.847C25.6897 108.685 28.6229 107.47 31.6806 107.47C34.7383 107.47 37.6715 108.686 39.8345 110.847C41.9975 113.01 43.2116 115.943 43.2116 119.001C43.2082 122.059 41.9928 124.99 39.831 127.151C37.6692 129.313 34.7383 130.529 31.6806 130.532ZM42.9634 130.532C45.5006 128.058 47.1497 124.814 47.6568 121.307H84.8931C85.4001 124.815 87.0503 128.058 89.5865 130.532H42.9634ZM100.869 130.532C97.8107 130.532 94.8778 129.318 92.7148 127.155C90.553 124.992 89.3378 122.06 89.3378 119.001C89.3378 115.943 90.5531 113.01 92.7148 110.847C94.8777 108.685 97.811 107.47 100.869 107.47C103.928 107.47 106.861 108.686 109.023 110.847C111.186 113.01 112.4 115.943 112.4 119.001C112.396 122.059 111.181 124.99 109.019 127.151C106.857 129.313 103.926 130.529 100.869 130.532Z" fill="white"/>
<path d="M31.6807 112.084C29.8462 112.084 28.0859 112.813 26.7884 114.111C25.4906 115.409 24.7616 117.169 24.7616 119.003C24.7616 120.839 25.4906 122.598 26.7884 123.895C28.0861 125.193 29.8464 125.922 31.6807 125.922C33.5163 125.922 35.2754 125.193 36.573 123.895C37.8707 122.598 38.5997 120.839 38.5997 119.003C38.5974 117.169 37.8673 115.411 36.5707 114.113C35.274 112.817 33.5149 112.086 31.6807 112.084ZM31.6807 121.309C30.748 121.309 29.9068 120.747 29.5498 119.885C29.1927 119.024 29.3907 118.033 30.0499 117.372C30.7091 116.713 31.7013 116.515 32.563 116.872C33.4247 117.229 33.9867 118.07 33.9867 119.003C33.9855 120.277 32.9544 121.308 31.6807 121.309Z" fill="white"/>
</svg>
